<?xml version="1.0" encoding="UTF-8" standalone="no"?>
<svg
   width="177.94061mm"
   height="195.36674mm"
   viewBox="0 0 177.94062 195.36674"
   version="1.1"
   id="svg6"
   inkscape:version="1.1-dev (58f675d, 2020-10-02)"
   sodipodi:docname="dessin1.svg"
   xmlns:inkscape="http://www.inkscape.org/namespaces/inkscape"
   xmlns:sodipodi="http://sodipodi.sourceforge.net/DTD/sodipodi-0.dtd"
   xmlns="http://www.w3.org/2000/svg"
   xmlns:svg="http://www.w3.org/2000/svg">
  <defs
     id="defs2" />
  <sodipodi:namedview
     id="base"
     pagecolor="#ffffff"
     bordercolor="#666666"
     borderopacity="1.0"
     inkscape:pageopacity="0.0"
     inkscape:pageshadow="2"
     inkscape:zoom="0.98994949"
     inkscape:cx="278.29703"
     inkscape:cy="575.28188"
     inkscape:document-units="mm"
     inkscape:current-layer="layer1"
     showgrid="false"
     showguides="false"
     inkscape:window-width="1920"
     inkscape:window-height="1027"
     inkscape:window-x="-8"
     inkscape:window-y="-8"
     inkscape:window-maximized="1" />
  <g
     inkscape:label="Calque 1"
     inkscape:groupmode="layer"
     id="layer1"
     transform="translate(-4.767782,-17.977343)">
    <g
       id="g142"
       transform="matrix(0.26458333,0,0,0.26458333,4.7677767,17.977345)">
      <path
         d="m 730.73425,230.607 c -46.62012,-7.44 -99.71,-11.41 -155,-11.41 -50.6001,0 -99.3501,3.32 -142.98,9.58 0.0103,-0.67005 0.02,-1.34 0.0498,-2.01 a 148.99943,148.99943 0 0 1 297.91015,1.82 c 0.0103,0.68 0.02,1.35 0.02,2.02 z"
         transform="translate(-263.73425,-80.80301)"
         fill="#f9a826"
         id="path8" />
      <g
         opacity="0.1"
         id="g12">
        <path
           d="M 601.28454,82.14432 A 149.04745,149.04745 0 0 0 432.35339,225.373 c -0.0303,0.67 -0.04,1.34 -0.0498,2.01 12.96191,-1.85981 26.38476,-3.4535 40.165,-4.78431 A 149.02172,149.02172 0 0 1 601.28454,82.14432 Z"
           transform="translate(-263.73425,-80.80301)"
           fill="#ffffff"
           id="path10" />
      </g>
      <path
         d="m 795.91443,242.427 a 600.121,600.121 0 0 0 -65.2002,-13.84 943.3639,943.3639 0 0 0 -108.73974,-10.45 c -15.17041,-0.62 -30.62012,-0.94 -46.24024,-0.94 -12.37988,0 -24.66015,0.2 -36.77,0.6 a 973.28988,973.28988 0 0 0 -106.16015,8.97 624.29224,624.29224 0 0 0 -77.25,15.66 c -59.21,16.37 -91.81983,38.31 -91.81983,61.77 0,23.46 32.60987,45.4 91.81983,61.77 41.64013,11.52 92.98,19.37 148.92041,22.97 23.08984,1.5 46.96,2.26 71.25976,2.26 24.37988,0 48.33008,-0.77 71.49024,-2.27 50.90966,-3.29 98.00976,-10.1 137.42968,-20 0.21,-0.06 0.41016,-0.11 0.62012,-0.16 2.66016,-0.66 5.27979,-1.35 7.87012,-2.04 0.92969,-0.26 1.84961,-0.51 2.77,-0.76 a 0.97843,0.97843 0 0 1 0.15967,-0.05 c 0.88037,-0.24 1.75,-0.49 2.62011,-0.73 1.74024,-0.5 3.46,-0.99 5.14991,-1.5 0.0801,-0.02 0.1499,-0.04 0.22021,-0.06 1.46973,-0.44 2.91016,-0.88 4.33984,-1.32 1.16993,-0.37 2.33008,-0.73 3.48,-1.1 q 1.26051,-0.405 2.49024,-0.81 c 0.6001,-0.2 1.18994,-0.39 1.77,-0.59 0.79,-0.26 1.58008,-0.53 2.35986,-0.8 0.33008,-0.11 0.66016,-0.22 0.98,-0.34 0.75,-0.25 1.48,-0.51 2.21,-0.77 0.79,-0.28 1.58008,-0.57 2.35987,-0.85 0.65039,-0.23 1.30029,-0.47 1.93994,-0.71 0.54,-0.21 1.07031,-0.41 1.61035,-0.61 1.46973,-0.55 2.91016,-1.12006 4.33008,-1.68 0.71,-0.29 1.41992,-0.57 2.11963,-0.86 0.68994,-0.28 1.39013,-0.57 2.07031,-0.86 q 1.67944,-0.70506 3.2998,-1.41 c 0.52,-0.24 1.0503,-0.47 1.56006,-0.68994 0.39014,-0.18 0.77,-0.35 1.16016,-0.53 0.27978,-0.12 0.56006,-0.25 0.83008,-0.38 1.00976,-0.46 2.00976,-0.93 2.98974,-1.4 q 5.64039,-2.7 10.52979,-5.52 c 20.45019,-11.71 31.24023,-24.7 31.24023,-38.2 -6e-5,-23.46006 -32.60992,-45.40006 -91.81988,-61.77006 z m -0.54,121.62 c -41.68994,11.53 -93.16992,19.38 -149.26026,22.95 -22.81005,1.45 -46.38964,2.2 -70.37988,2.2 -23.91015,0 -47.41015,-0.74 -70.1499,-2.19 -56.18018,-3.56 -107.74023,-11.41 -149.49023,-22.96 -58.27,-16.12 -90.35987,-37.37 -90.35987,-59.85 a 24.11774,24.11774 0 0 1 0.74024,-5.89 c 5.09961,-20.28 36.46972,-39.26 89.61963,-53.96 a 623.80606,623.80606 0 0 1 76.66015,-15.57 976.02713,976.02713 0 0 1 106.79981,-9 q 17.88061,-0.585 36.18017,-0.58 c 15.41016,0 30.6499,0.31 45.62988,0.91 a 941.36713,941.36713 0 0 1 109.37012,10.5 598.85754,598.85754 0 0 1 64.6401,13.74 c 53.14014,14.7 84.5,33.67 89.60986,53.94 a 23.82213,23.82213 0 0 1 0.75,5.91 c 0,22.48 -32.08984,43.73 -90.35986,59.85 z"
         transform="translate(-263.73425,-80.80301)"
         fill="#3f3d56"
         id="path14"
         style="fill:#ffffff" />
      <path
         d="m 887.16443,305.107 c 0,13.36005 -11.01026,26 -30.67041,37.29 -3.26953,1.88 -6.78955,3.72 -10.52979,5.52 -0.98,0.47 -1.98,0.94 -2.98974,1.4 -0.27,0.13 -0.5503,0.26 -0.83008,0.38 -0.39014,0.18 -0.77,0.35 -1.16016,0.53 -0.50976,0.22 -1.04,0.45 -1.56006,0.68994 q -1.6201,0.705 -3.2998,1.41 c -0.68018,0.29 -1.38037,0.58 -2.07031,0.86 -0.69971,0.29 -1.40967,0.57 -2.11963,0.86 -1.41992,0.56 -2.86035,1.13 -4.33008,1.68 -0.54,0.2 -1.07031,0.4 -1.61035,0.61 -0.63965,0.24 -1.28955,0.48 -1.93994,0.71 -0.77979,0.28 -1.56983,0.57 -2.35987,0.85 -0.73,0.26 -1.46,0.52 -2.21,0.77 -0.31982,0.12006 -0.6499,0.23 -0.98,0.34 -0.77978,0.27 -1.56982,0.54 -2.35986,0.8 -0.58008,0.2 -1.16992,0.39 -1.77,0.59 q -1.23046,0.40494 -2.49024,0.81 c -1.1499,0.37 -2.31,0.73 -3.48,1.1 -1.42968,0.44 -2.87011,0.88 -4.33984,1.32 -0.0703,0.02 -0.14014,0.04 -0.22021,0.06 -1.68995,0.51 -3.40967,1 -5.14991,1.5 -0.87011,0.24 -1.73974,0.49 -2.62011,0.73 a 0.97843,0.97843 0 0 0 -0.15967,0.05 c -0.92041,0.25 -1.84033,0.5 -2.77,0.76 -2.58008,0.68 -5.21,1.37 -7.87012,2.04 -0.21,0.05 -0.41016,0.1 -0.62012,0.16 -38.35009,9.58 -85.3999,16.56 -137.46972,19.93 -22.81006,1.47 -46.59033,2.25 -71.02,2.25 -24.6499,0 -48.63037,-0.79 -71.62012,-2.29 -137.24023,-8.95 -239.37988,-43.03 -239.37988,-83.71 a 25.07169,25.07169 0 0 1 1.11963,-7.3 c 0.0601,0.17 0.12011,0.33 0.19043,0.5 14.26953,37.48 115.54,67.77 246.93994,75.16 20.12988,1.13995 40.98,1.73 62.31982,1.73 21.43018,0 42.35987,-0.6 62.56983,-1.74 131.29,-7.42 232.46045,-37.72 246.68017,-75.17 q 0.36036,-0.90006 0.62988,-1.8 a 25.30451,25.30451 0 0 1 1.55032,8.62006 z"
         transform="translate(-263.73425,-80.80301)"
         fill="#3f3d56"
         id="path16"
         style="fill:#b3b3b3" />
      <path
         d="m 355.40356,294.343 c -16.6427,0 -34.33068,-3.58057 -34.33068,-10.2168 0,-6.63623 17.688,-10.2168 34.33068,-10.2168 16.64268,0 34.33069,3.58057 34.33069,10.2168 0,6.63623 -17.68799,10.2168 -34.33069,10.2168 z m 0,-18.4336 c -19.053,0 -32.33068,4.33057 -32.33068,8.2168 0,3.88623 13.2777,8.2168 32.33068,8.2168 19.05298,0 32.33069,-4.33057 32.33069,-8.2168 0,-3.88623 -13.27771,-8.21681 -32.33069,-8.21681 z"
         transform="translate(-263.73425,-80.80301)"
         fill="#3f3d56"
         id="path18" />
      <path
         d="m 426.40344,341.343 c -16.64258,0 -34.33056,-3.58057 -34.33056,-10.2168 0,-6.63623 17.688,-10.2168 34.33056,-10.2168 16.64282,0 34.33081,3.58057 34.33081,10.2168 0,6.63623 -17.68799,10.2168 -34.33081,10.2168 z m 0,-18.4336 c -19.05286,0 -32.33056,4.33057 -32.33056,8.2168 0,3.88623 13.2777,8.2168 32.33056,8.2168 19.05286,0 32.33081,-4.33057 32.33081,-8.2168 0,-3.88623 -13.27783,-8.21681 -32.33081,-8.21681 z"
         transform="translate(-263.73425,-80.80301)"
         fill="#3f3d56"
         id="path20" />
      <path
         d="m 795.40344,294.343 c -16.64258,0 -34.33056,-3.58057 -34.33056,-10.2168 0,-6.63623 17.688,-10.2168 34.33056,-10.2168 16.64282,0 34.33081,3.58057 34.33081,10.2168 0,6.63623 -17.68799,10.2168 -34.33081,10.2168 z m 0,-18.4336 c -19.053,0 -32.33056,4.33057 -32.33056,8.2168 0,3.88623 13.27758,8.2168 32.33056,8.2168 19.05298,0 32.33081,-4.33057 32.33081,-8.2168 0,-3.88623 -13.27783,-8.21681 -32.33081,-8.21681 z"
         transform="translate(-263.73425,-80.80301)"
         fill="#3f3d56"
         id="path22" />
      <path
         d="m 724.40344,341.343 c -16.64258,0 -34.33056,-3.58057 -34.33056,-10.2168 0,-6.63623 17.688,-10.2168 34.33056,-10.2168 16.64282,0 34.33081,3.58057 34.33081,10.2168 0,6.63623 -17.68799,10.2168 -34.33081,10.2168 z m 0,-18.4336 c -19.053,0 -32.33056,4.33057 -32.33056,8.2168 0,3.88623 13.27758,8.2168 32.33056,8.2168 19.05298,0 32.33081,-4.33057 32.33081,-8.2168 0,-3.88623 -13.27783,-8.21681 -32.33081,-8.21681 z"
         transform="translate(-263.73425,-80.80301)"
         fill="#3f3d56"
         id="path24" />
      <path
         d="m 575.40344,363.343 c -16.64258,0 -34.33056,-3.58057 -34.33056,-10.2168 0,-6.63623 17.688,-10.2168 34.33056,-10.2168 16.64282,0 34.33081,3.58057 34.33081,10.2168 0,6.63623 -17.68799,10.2168 -34.33081,10.2168 z m 0,-18.4336 c -19.053,0 -32.33056,4.33057 -32.33056,8.2168 0,3.88623 13.27758,8.2168 32.33056,8.2168 19.05298,0 32.33081,-4.33057 32.33081,-8.2168 0,-3.88623 -13.27783,-8.21681 -32.33081,-8.21681 z"
         transform="translate(-263.73425,-80.80301)"
         fill="#3f3d56"
         id="path26" />
      <ellipse
         cx="336.97784"
         cy="450.70425"
         fill="#2f2e41"
         id="circle28"
         rx="42.013229"
         ry="42.012329"
         style="fill:#cccccc" />
      <rect
         x="565.93652"
         y="563.55389"
         width="22.867559"
         height="12.76328"
         transform="rotate(-26.60099,274.59932,1087.3497)"
         fill="#2f2e41"
         id="rect30"
         style="fill:#cccccc" />
      <ellipse
         cx="563.82043"
         cy="573.74841"
         rx="3.9885299"
         ry="10.63605"
         transform="rotate(-56.60122,356.92149,778.24451)"
         fill="#2f2e41"
         id="ellipse32"
         style="fill:#cccccc" />
      <rect
         x="617.67224"
         y="558.50177"
         width="12.76328"
         height="22.867559"
         transform="rotate(-63.39901,426.76994,743.04922)"
         fill="#2f2e41"
         id="rect34"
         style="fill:#cccccc" />
      <ellipse
         cx="637.60376"
         cy="573.74841"
         rx="10.63605"
         ry="3.9885299"
         transform="rotate(-33.39878,371.06617,972.89992)"
         fill="#2f2e41"
         id="ellipse36"
         style="fill:#cccccc" />
      <circle
         cx="334.03662"
         cy="440.4278"
         r="14.35864"
         fill="#ffffff"
         id="circle38" />
      <ellipse
         cx="597.86951"
         cy="515.08398"
         rx="4.7662401"
         ry="4.8000002"
         transform="rotate(-45,368.46453,793.03791)"
         fill="#3f3d56"
         id="ellipse40" />
      <path
         d="m 633.854,485.80233 c 0.63177,-15.55359 -12.77314,-28.7276 -29.9408,-29.42493 -17.16766,-0.69733 -31.59692,11.346 -32.22873,26.8996 -0.63181,15.5536 11.30191,19.08746 28.46958,19.78485 17.16767,0.69739 33.06809,-1.70593 33.69995,-17.25952 z"
         transform="translate(-263.73425,-80.80301)"
         fill="#f9a826"
         id="path42" />
      <ellipse
         cx="644.38812"
         cy="537.56775"
         rx="6.59448"
         ry="21.006161"
         transform="rotate(-40.64516,403.43372,853.21814)"
         fill="#2f2e41"
         id="ellipse44"
         style="fill:#cccccc" />
      <ellipse
         cx="557.15363"
         cy="537.56775"
         rx="21.006161"
         ry="6.59448"
         transform="rotate(-49.35484,337.35605,784.1638)"
         fill="#2f2e41"
         id="ellipse46"
         style="fill:#cccccc" />
      <path
         d="m 612.25083,548.0638 a 9.5724422,9.5724422 0 0 1 -18.83533,3.42884 l -0.003,-0.0185 c -0.94177,-5.20214 3.08039,-7.043 8.28254,-7.98474 5.20215,-0.94174 9.61444,-0.62774 10.55615,4.5744 z"
         transform="translate(-263.73425,-80.80301)"
         fill="#ffffff"
         id="path48" />
      <path
         d="m 529.73425,576.197 a 2.0001,2.0001 0 0 1 -2,-2 v -118 a 2,2 0 0 1 4,0 v 118 a 2.0001,2.0001 0 0 1 -2,2 z"
         transform="translate(-263.73425,-80.80301)"
         fill="#cccccc"
         id="path50"
         style="fill:#e6e6e6" />
      <path
         d="m 499.73425,682.197 a 2.0001,2.0001 0 0 1 -2,-2 v -86 a 2,2 0 1 1 4,0 v 86 a 2.0001,2.0001 0 0 1 -2,2 z"
         transform="translate(-263.73425,-80.80301)"
         fill="#cccccc"
         id="path52"
         style="fill:#e6e6e6" />
      <path
         d="m 576.73425,611.197 a 2.0001,2.0001 0 0 1 -2,-2 v -118 a 2,2 0 1 1 4,0 v 118 a 2.0001,2.0001 0 0 1 -2,2 z"
         transform="translate(-263.73425,-80.80301)"
         fill="#cccccc"
         id="path54"
         style="fill:#e6e6e6" />
      <path
         d="m 547.73425,696.197 a 2.0001,2.0001 0 0 1 -2,-2 v -48 a 2,2 0 1 1 4,0 v 48 a 2.0001,2.0001 0 0 1 -2,2 z"
         transform="translate(-263.73425,-80.80301)"
         fill="#cccccc"
         id="path56"
         style="fill:#e6e6e6" />
      <path
         d="m 588.73425,450.197 a 2.0001,2.0001 0 0 1 -2,-2 v -48 a 2,2 0 0 1 4,0 v 48 a 2.0001,2.0001 0 0 1 -2,2 z"
         transform="translate(-263.73425,-80.80301)"
         fill="#cccccc"
         id="path58"
         style="fill:#e6e6e6" />
      <path
         d="m 488.73425,471.197 a 2.0001,2.0001 0 0 1 -2,-2 v -48 a 2,2 0 0 1 4,0 v 48 a 2.0001,2.0001 0 0 1 -2,2 z"
         transform="translate(-263.73425,-80.80301)"
         fill="#cccccc"
         id="path60"
         style="fill:#e6e6e6" />
      <path
         d="m 662.73425,476.197 a 2.0001,2.0001 0 0 1 -2,-2 v -48 a 2,2 0 1 1 4,0 v 48 a 2.0001,2.0001 0 0 1 -2,2 z"
         transform="translate(-263.73425,-80.80301)"
         fill="#cccccc"
         id="path62"
         style="fill:#e6e6e6" />
      <path
         d="m 658.73425,626.197 a 2.0001,2.0001 0 0 1 -2,-2 v -58 a 2,2 0 1 1 4,0 v 58 a 2.0001,2.0001 0 0 1 -2,2 z"
         transform="translate(-263.73425,-80.80301)"
         fill="#cccccc"
         id="path64"
         style="fill:#e6e6e6" />
      <path
         d="m 618.73425,677.197 a 2.0001,2.0001 0 0 1 -2,-2 v -86 a 2,2 0 1 1 4,0 v 86 a 2.0001,2.0001 0 0 1 -2,2 z"
         transform="translate(-263.73425,-80.80301)"
         fill="#cccccc"
         id="path66"
         style="fill:#e6e6e6" />
      <path
         d="m 626.73425,530.197 a 2.0001,2.0001 0 0 1 -2,-2 v -118 a 2,2 0 1 1 4,0 v 118 a 2.0001,2.0001 0 0 1 -2,2 z"
         transform="translate(-263.73425,-80.80301)"
         fill="#cccccc"
         id="path68"
         style="fill:#e6e6e6" />
      <ellipse
         cx="858.10364"
         cy="764.78333"
         rx="6.7600698"
         ry="21.533689"
         transform="rotate(-39.93837,615.04831,1087.291)"
         fill="#2f2e41"
         id="ellipse70"
         style="fill:#e6e6e6" />
      <circle
         cx="812.29651"
         cy="757.30542"
         r="43.067329"
         transform="rotate(-71.56505,624.37522,899.8598)"
         fill="#2f2e41"
         id="circle72"
         style="fill:#e6e6e6" />
      <rect
         x="553.70728"
         y="710.302"
         width="13.08374"
         height="23.44171"
         fill="#2f2e41"
         id="rect74"
         style="fill:#e6e6e6" />
      <rect
         x="527.53979"
         y="710.302"
         width="13.08374"
         height="23.44171"
         fill="#2f2e41"
         id="rect76"
         style="fill:#e6e6e6" />
      <ellipse
         cx="555.88788"
         cy="734.0163"
         rx="10.90314"
         ry="4.0886798"
         fill="#2f2e41"
         id="ellipse78"
         style="fill:#e6e6e6" />
      <ellipse
         cx="529.7204"
         cy="733.47113"
         rx="10.90314"
         ry="4.0886798"
         fill="#2f2e41"
         id="ellipse80"
         style="fill:#e6e6e6" />
      <path
         d="m 798.77365,703.16853 c 3.84557,-15.487 20.82057,-24.60076 37.91471,-20.35617 17.09414,4.24459 27.83428,20.24028 23.98871,35.72729 -3.84557,15.48701 -16.60394,15.537 -33.69809,11.29233 -17.09415,-4.24467 -32.05092,-11.17641 -28.20533,-26.66345 z"
         transform="translate(-263.73425,-80.80301)"
         fill="#cccccc"
         id="path82"
         style="fill:#808080" />
      <ellipse
         cx="763.78833"
         cy="737.3219"
         rx="6.7600698"
         ry="21.533689"
         transform="rotate(-64.62574,568.0441,905.40985)"
         fill="#2f2e41"
         id="ellipse84"
         style="fill:#e6e6e6" />
      <circle
         cx="542.12366"
         cy="667.41486"
         r="14.35864"
         fill="#ffffff"
         id="circle86" />
      <circle
         cx="536.22229"
         cy="662.26807"
         r="4.7862201"
         fill="#3f3d56"
         id="circle88" />
      <circle
         cx="542"
         cy="697.39398"
         r="6"
         fill="#ffffff"
         id="circle90" />
      <path
         d="m 935.26575,819.197 h -236 a 1,1 0 0 1 0,-2 h 236 a 1,1 0 0 1 0,2 z"
         transform="translate(-263.73425,-80.80301)"
         fill="#3f3d56"
         id="path92"
         style="fill:#e6e6e6" />
    </g>
    <path
       style="fill:#ececec;stroke-width:0.714286"
       d="M 282.85714,361.01379 C 161.87664,355.64316 63.844129,331.599 31.015402,299.24526 25.964073,294.26702 21.4483,287.62682 21.435274,285.1582 c -0.01637,-3.1023 4.650182,-10.33794 10.267016,-15.91934 18.137925,-18.0235 56.263383,-33.48797 111.512,-45.23154 35.62415,-7.57222 78.02456,-12.81159 128.92857,-15.93153 19.44548,-1.19183 95.49058,-1.20077 115,-0.0135 75.6506,4.60374 132.57034,13.82243 180.3051,29.20213 38.12797,12.28447 64.76819,29.4694 70.47164,45.45947 0.91807,2.57389 0.85461,2.94746 -1.15259,6.78429 -2.75402,5.26442 -11.21471,13.66893 -19.02108,18.8948 -42.39567,28.38113 -132.50069,47.9277 -242.74593,52.65911 -19.00921,0.81582 -73.31888,0.78737 -92.14286,-0.0483 z m 63.32894,-11.4271 c 18.29475,-2.76524 23.76348,-10.22468 11.47965,-15.6584 -13.88159,-6.14048 -49.12416,-5.18573 -59.09042,1.60082 -3.30291,2.24913 -4.02586,3.61677 -3.18131,6.01824 0.98171,2.79148 4.37106,4.82574 11.03731,6.62448 10.05585,2.71336 27.14105,3.32142 39.75477,1.41486 z M 198.21429,327.48249 C 209.2439,325.50186 215,322.33534 215,318.24839 c 0,-4.10911 -3.86989,-6.37364 -15,-8.7775 -9.74327,-2.10434 -28.85453,-2.08642 -38.87721,0.0365 -11.87102,2.51436 -16.73305,6.07912 -14.55463,10.67122 1.66817,3.51645 10.32888,6.7065 21.77993,8.02233 6.68907,0.76865 23.88913,0.3549 29.8662,-0.71842 z m 300.7578,-0.60455 c 10.51334,-2.1994 15.25515,-5.44488 14.18498,-9.70875 -1.938,-7.7216 -29.75413,-11.80197 -53.11688,-7.79174 -10.01763,1.71954 -15.75448,4.99515 -15.75448,8.99545 0,4.99484 7.19403,7.90699 25,10.12005 5.45761,0.67831 23.38648,-0.29706 29.68638,-1.61501 z M 129.64286,280.00999 c 18.28785,-3.87544 19.71363,-12.34436 2.84038,-16.87146 -7.21274,-1.93518 -29.13563,-2.72049 -38.353568,-1.37388 -25.524768,3.72881 -25.429574,15.31568 0.156042,18.99366 8.915746,1.28166 27.648786,0.88518 35.357146,-0.74832 z m 440,0 c 18.28785,-3.87544 19.71363,-12.34436 2.84038,-16.87146 -7.21274,-1.93518 -29.13563,-2.72049 -38.35357,-1.37388 -25.52476,3.72881 -25.42957,15.31568 0.15604,18.99366 8.91575,1.28166 27.64879,0.88518 35.35715,-0.74832 z"
       id="path144"
       transform="scale(0.26458333)" />
  </g>
</svg>
