<?xml version="1.0" encoding="UTF-8" standalone="no"?>
<svg
   xmlns:dc="http://purl.org/dc/elements/1.1/"
   xmlns:cc="http://creativecommons.org/ns#"
   xmlns:rdf="http://www.w3.org/1999/02/22-rdf-syntax-ns#"
   xmlns:svg="http://www.w3.org/2000/svg"
   xmlns="http://www.w3.org/2000/svg"
   xmlns:sodipodi="http://sodipodi.sourceforge.net/DTD/sodipodi-0.dtd"
   xmlns:inkscape="http://www.inkscape.org/namespaces/inkscape"
   version="1.1"
   id="Capa_1"
   x="0px"
   y="0px"
   width="30.020748"
   height="32.7505"
   viewBox="0 0 30.020748 32.7505"
   xml:space="preserve"
   sodipodi:docname="up.svg"
   inkscape:version="1.0.1 (3bc2e813f5, 2020-09-07)"><metadata
   id="metadata41"><rdf:RDF><cc:Work
       rdf:about=""><dc:format>image/svg+xml</dc:format><dc:type
         rdf:resource="http://purl.org/dc/dcmitype/StillImage" /><dc:title></dc:title></cc:Work></rdf:RDF></metadata><defs
   id="defs39" /><sodipodi:namedview
   pagecolor="#ffffff"
   bordercolor="#666666"
   borderopacity="1"
   objecttolerance="10"
   gridtolerance="10"
   guidetolerance="10"
   inkscape:pageopacity="0"
   inkscape:pageshadow="2"
   inkscape:window-width="1920"
   inkscape:window-height="1027"
   id="namedview37"
   showgrid="false"
   inkscape:zoom="26.259542"
   inkscape:cx="13.647159"
   inkscape:cy="10.282977"
   inkscape:window-x="-8"
   inkscape:window-y="-8"
   inkscape:window-maximized="1"
   inkscape:current-layer="g4" />
<g
   id="g4"
   transform="translate(-1.3639204,5e-4)">
	<path
   d="m 30.434,15.938 c -0.791,0.933 -1.917,1.411 -3.052,1.411 -0.913,0 -1.834,-0.312 -2.587,-0.951 L 20.374,12.645 V 28.75 c 0,2.209 -1.791,4 -4,4 -2.209,0 -4,-1.791 -4,-4 V 12.646 L 7.954,16.4 C 6.271,17.831 3.746,17.626 2.315,15.941 0.885,14.257 1.091,11.733 2.775,10.303 l 11.01,-9.351 c 1.493,-1.27 3.686,-1.27 5.178,0 l 11.011,9.351 c 1.684,1.427 1.889,3.952 0.46,5.635 z"
   id="path2"
   style="fill:#e6e6e6" />
</g>
<g
   id="g6"
   transform="translate(-1.3639204,5e-4)">
</g>
<g
   id="g8"
   transform="translate(-1.3639204,5e-4)">
</g>
<g
   id="g10"
   transform="translate(-1.3639204,5e-4)">
</g>
<g
   id="g12"
   transform="translate(-1.3639204,5e-4)">
</g>
<g
   id="g14"
   transform="translate(-1.3639204,5e-4)">
</g>
<g
   id="g16"
   transform="translate(-1.3639204,5e-4)">
</g>
<g
   id="g18"
   transform="translate(-1.3639204,5e-4)">
</g>
<g
   id="g20"
   transform="translate(-1.3639204,5e-4)">
</g>
<g
   id="g22"
   transform="translate(-1.3639204,5e-4)">
</g>
<g
   id="g24"
   transform="translate(-1.3639204,5e-4)">
</g>
<g
   id="g26"
   transform="translate(-1.3639204,5e-4)">
</g>
<g
   id="g28"
   transform="translate(-1.3639204,5e-4)">
</g>
<g
   id="g30"
   transform="translate(-1.3639204,5e-4)">
</g>
<g
   id="g32"
   transform="translate(-1.3639204,5e-4)">
</g>
<g
   id="g34"
   transform="translate(-1.3639204,5e-4)">
</g>
</svg>
